<?xml version="1.0" encoding="UTF-8" standalone="no"?>
<!DOCTYPE svg PUBLIC "-//W3C//DTD SVG 1.1//EN" "http://www.w3.org/Graphics/SVG/1.1/DTD/svg11.dtd">
<svg width="100%" height="100%" viewBox="0 0 1024 1024" version="1.1" xmlns="http://www.w3.org/2000/svg" xmlns:xlink="http://www.w3.org/1999/xlink" xml:space="preserve" xmlns:serif="http://www.serif.com/" style="fill-rule:evenodd;clip-rule:evenodd;stroke-linecap:round;stroke-linejoin:round;stroke-miterlimit:1.5;">
    <g transform="matrix(1.479769,0,0,1.35809,-216.046243,-65.188329)">
        <path d="M838,215.883L838,634.117C838,726.774 768.96,802 683.922,802L300.078,802C215.04,802 146,726.774 146,634.117L146,215.883C146,123.226 215.04,48 300.078,48L683.922,48C768.96,48 838,123.226 838,215.883Z" style="fill:rgb(20,24,31);stroke:black;stroke-width:0.7px;"/>
    </g>
    <g id="Andrew-Girgis-Logo" serif:id="Andrew Girgis Logo" transform="matrix(1.140756,0,0,1.140756,-66.379999,-63.641646)">
        <g>
            <g transform="matrix(0.823097,0,0,0.823097,85.96279,99.246335)">
                <path d="M293.168,582.858C298.426,599.314 303.279,642.676 330.911,676.133C350.547,699.909 386.419,719.455 386.37,716.489C386.322,713.615 365.698,650.813 436.477,625.436C475.303,611.515 505.916,632.403 520.549,628.691C537.146,624.48 564.989,611.797 605.263,629.985C648.548,649.533 647.055,690.24 646.825,696.511C646.504,705.265 643.857,718.58 646.357,717.13C726.426,670.718 726.045,631.729 738.84,580.834C741.827,568.953 741.498,636.152 725.769,690.579C697.865,787.132 609.808,859.905 546.542,868.75C534.46,870.44 534.56,870.146 522.504,870.93C500.284,870.639 443.918,880.492 366.739,797.27C289.814,714.322 291.895,636.084 290.88,598.747C290.377,580.233 290.526,574.591 293.168,582.858ZM528.496,664.069C488.675,664.083 397.397,654.197 414.989,725.392C430.639,788.726 502.123,779.339 487.561,732.48C483.466,719.301 480.692,717.139 484.442,717.152C489.383,717.169 545.956,717.359 546.203,717.721C547.174,719.14 528.701,753.065 554.592,767.333C600.296,792.52 660.312,680.941 574.538,666.296C559.905,663.797 532.184,664.037 528.496,664.069Z" style="fill:rgb(22,133,255);"/>
            </g>
            <path d="M295.933,271.503C302.582,231.951 331.733,248.203 332.007,241.493C333.647,201.342 368.711,209.998 375.496,210.658C379.44,211.041 389.024,170.067 430.637,191.224C432.866,192.357 435.358,185.72 445.633,181.867C469.791,172.81 484.465,187.879 486.747,189.056C493.373,192.471 499.132,187.892 499.749,184.573C503.906,162.207 533.946,179.424 537.164,181.955C543.253,186.743 542.056,194.26 547.708,188.716C558.176,178.445 585.232,181.763 591.166,199.605C594.62,209.989 598.931,191.068 618.591,196.135C637.683,201.056 641.568,223.364 643.538,222.615C646.624,221.442 672.007,211.796 683.316,233.606C692.301,250.932 682.82,258.998 690.442,257.267C705.487,253.849 728.09,268.476 720.71,292.572C718.198,300.773 728.296,294.453 737.003,306.845C751.406,327.345 730.777,348.986 731.839,350.204C751.608,372.877 725.566,389.659 726.524,392.492C734.951,417.417 729.423,420.193 716.891,437.78C715.919,439.144 711.185,461.238 711.899,462.292C712.701,463.478 721.271,476.135 710.373,480.119C697.343,484.883 697.813,486.84 695.771,500.56C680.354,604.132 581.351,597.701 545.085,546.802C515.465,505.23 546.256,480.558 517.464,478.976C487.55,477.332 489.872,486.25 490.052,493.504C491.93,569.098 428.299,582.623 406.497,582.035C324.005,579.808 325.765,498.001 320.611,486.433C316.916,478.141 290.998,483.087 306.139,463.176C308.941,459.492 301.809,437.253 300.256,435.749C269.051,405.517 296.336,391.699 288.31,385.767C263.703,367.581 276.205,348.303 279.596,344.584C284.517,339.188 272.467,334.337 271.946,321.48C270.546,286.908 301.329,290.87 300.471,288.504C297.4,280.027 296.978,280.34 295.933,271.503ZM341.053,494.495C342.132,605.784 484.906,576.577 474.802,491.454C468.227,436.057 362.377,432.525 344.273,478.415C341.218,486.158 342.164,486.267 341.053,494.495ZM530.507,354.06C523.97,352.724 523.983,352.83 523.447,352.618C515.891,349.614 529.777,339.676 515.451,328.606C512.441,326.28 514.274,343.446 490.504,343.16C465.923,342.865 468.357,324.384 460.202,331.131C441.086,346.946 424.399,332.75 420.448,334.341C409.152,338.889 422.171,347.49 418.35,351.358C400.178,369.755 380.151,341.521 372.469,344.412C324.028,362.645 324.154,457.019 325.365,457.658C338.047,464.348 345.573,438.496 392.543,433.803C467.15,426.349 478.634,466.679 485.581,464.943C516.123,457.314 524.442,462.855 536.478,465.721C543.926,467.494 543.126,432.471 614.497,432.859C668.592,433.154 668.027,455.085 690.452,457.852C697.174,458.681 695.216,455.291 694.744,448.481C690.056,380.881 672.633,361.277 658.199,349.909C642.073,337.207 636.143,348.805 622.401,339.644C618.879,337.296 618.991,339.654 617.178,343.324C612.91,351.961 599.837,361.175 588.632,350.366C584.186,346.078 592.163,344.167 590.839,338.441C587.331,323.271 577.421,340.093 558.295,329.869C554.664,327.928 555.348,352.706 530.507,354.06ZM678.946,500.504C678.889,498.228 678.483,481.908 673.287,472.623C652.385,435.27 545.572,432.93 544.98,497.501C544.236,578.694 670.693,601.25 678.946,500.504Z" style="fill:rgb(22,133,255);"/>
        </g>
    </g>
</svg>
